<?xml version="1.0" encoding="UTF-8"?>
<svg version="1.1" xmlns="http://www.w3.org/2000/svg" width="500" height="500">
<path d="M0 0 C0.94944677 0.00184359 1.89889355 0.00368717 2.87711143 0.00558662 C3.96528664 0.0028373 5.05346184 0.00008797 6.17461205 -0.00274467 C7.37366676 0.00444588 8.57272148 0.01163643 9.80811119 0.01904488 C11.06661385 0.01875282 12.3251165 0.01846077 13.6217556 0.01815987 C17.07819525 0.0175847 20.53449684 0.02936541 23.99090433 0.04330778 C27.60105793 0.05578789 31.21121449 0.05698349 34.82138634 0.0593586 C41.66017363 0.06558139 48.49889719 0.08200296 55.33765638 0.10205758 C63.12230989 0.12439177 70.9069664 0.13540376 78.69164395 0.14544845 C94.7075545 0.16636853 110.72340089 0.20155997 126.73926353 0.24609566 C125.9554005 1.68236635 125.16841546 3.11693344 124.38013268 4.55078316 C123.94221901 5.34984077 123.50430534 6.14889839 123.05312157 6.97216988 C121.33550703 9.94488678 119.3249456 12.57086385 117.17676353 15.24609566 C113.26494753 20.20195113 109.54692585 25.26100231 105.92676353 30.43359566 C101.7603056 36.38136531 97.55953379 42.30077109 93.30176353 48.18359566 C92.76623863 48.92375923 92.23071373 49.66392281 91.6789608 50.42651558 C90.03303094 52.70017022 88.38620407 54.97317304 86.73926353 57.24609566 C84.44644797 60.41193237 82.1547218 63.57855302 79.86426353 66.74609566 C79.31190025 67.50986519 78.75953697 68.27363472 78.19043541 69.06054878 C75.52868705 72.74679468 72.88792349 76.4437102 70.30176353 80.18359566 C66.29906388 85.95633335 62.08536481 91.57685563 57.88794518 97.20874214 C54.0006563 102.4481315 50.30548384 107.78310568 46.73926353 113.24609566 C48.47374251 116.88729197 50.6370324 119.72589263 53.17676353 122.87109566 C69.34307036 143.45207068 81.30197313 168.23998309 88.73926353 193.24609566 C88.94938072 193.94847359 89.15949791 194.65085152 89.37598228 195.37451363 C106.1681081 252.98931501 96.94978331 312.13001195 68.55957603 364.31640816 C65.36896103 370.00402622 61.80046487 375.13960622 57.73926353 380.24609566 C56.44326201 382.0763672 55.15171995 383.90980324 53.86426353 385.74609566 C50.26023544 390.70959997 46.28593113 395.20704198 42.10645103 399.69140816 C40.10435789 401.85208294 38.19473613 404.05333166 36.30176353 406.30859566 C2.71684555 444.84866548 -51.72039129 467.69591105 -101.82909584 472.01904488 C-151.90199524 475.33206397 -200.5378593 463.6893346 -242.26073647 435.24609566 C-242.85886147 434.84713081 -243.45698647 434.44816597 -244.07323647 434.03711128 C-252.12406875 428.64964701 -259.32920655 422.70686732 -266.32323647 416.00781441 C-268.29430597 414.12099833 -270.31547606 412.34706845 -272.42870522 410.62109566 C-274.73569983 408.68640224 -276.64830927 406.85159679 -278.57323647 404.55859566 C-280.43724651 402.36085455 -282.30423058 400.20008258 -284.28417397 398.10547066 C-324.52450143 355.39552021 -338.88474992 296.39578963 -337.33434486 239.25995064 C-335.78033542 196.74374692 -317.75089778 151.56407456 -290.26073647 119.24609566 C-289.63683022 118.44043159 -289.01292397 117.63476753 -288.37011147 116.80468941 C-277.48299015 102.86335658 -264.53092232 90.65514644 -250.26073647 80.24609566 C-249.39190834 79.60543159 -248.52308022 78.96476753 -247.62792397 78.30468941 C-200.83712717 44.67850586 -142.96868046 31.43509431 -86.12157631 39.70263863 C-70.0182693 42.34381439 -54.66501454 46.93038144 -39.26073647 52.24609566 C-38.9603849 51.47177193 -38.66003334 50.6974482 -38.35058022 49.89966011 C-37.22924693 47.16942456 -35.89046359 44.8904093 -34.26073647 42.43359566 C-33.74511147 41.64340034 -33.22948647 40.85320503 -32.69823647 40.03906441 C-32.22386147 39.44738472 -31.74948647 38.85570503 -31.26073647 38.24609566 C-30.60073647 38.24609566 -29.94073647 38.24609566 -29.26073647 38.24609566 C-28.93073647 36.92609566 -28.60073647 35.60609566 -28.26073647 34.24609566 C-27.60073647 34.24609566 -26.94073647 34.24609566 -26.26073647 34.24609566 C-25.87015053 33.15748238 -25.87015053 33.15748238 -25.47167397 32.04687691 C-24.21989687 29.15163763 -22.77029129 26.95826299 -20.88573647 24.43359566 C-20.18448647 23.49000191 -19.48323647 22.54640816 -18.76073647 21.57422066 C-18.36886147 21.05279488 -17.97698647 20.53136909 -17.57323647 19.99414253 C-16.08744746 18.01530152 -14.61156532 16.02925002 -13.13573647 14.04297066 C-12.05283806 12.58952151 -10.96950629 11.13639514 -9.88573647 9.68359566 C-9.36189369 8.98065376 -8.83805092 8.27771187 -8.29833412 7.5534687 C-7.55655922 6.56407295 -7.55655922 6.56407295 -6.79979897 5.55468941 C-6.35845619 4.96486275 -5.91711342 4.37503609 -5.46239662 3.76733589 C-2.72042111 0.29613528 -2.72042111 0.29613528 0 0 Z M-240.15917397 122.29687691 C-242.04001314 124.04137272 -243.96691678 125.68077133 -245.94823647 127.30859566 C-249.81042237 130.61390824 -253.04588853 134.31683707 -256.26073647 138.24609566 C-257.0122599 139.16004097 -257.76378334 140.07398628 -258.53808022 141.01562691 C-290.15446563 180.72340954 -303.0760575 228.16959024 -297.58886147 278.47705269 C-292.28980818 323.19570029 -268.24464043 366.00170118 -233.04979897 394.07031441 C-231.66921303 395.14732613 -231.66921303 395.14732613 -230.26073647 396.24609566 C-229.03483803 397.21482613 -229.03483803 397.21482613 -227.78417397 398.20312691 C-189.13096576 427.58195853 -140.95925327 438.02442065 -93.26073647 432.24609566 C-92.50292885 432.15731148 -91.74512123 432.0685273 -90.96434975 431.97705269 C-64.10730974 428.58222015 -36.94222873 416.15684854 -15.26073647 400.24609566 C-14.43960365 399.65441597 -13.61847084 399.06273628 -12.77245522 398.45312691 C-6.19190347 393.53232356 -0.22268144 387.88555814 5.73926353 382.24609566 C7.04443932 381.02213081 7.04443932 381.02213081 8.37598228 379.77343941 C14.92663779 373.44902319 20.35897533 366.55752302 25.73926353 359.24609566 C26.25488853 358.56418159 26.77051353 357.88226753 27.30176353 357.17968941 C29.96464584 353.5931198 32.18901318 349.85259631 34.29785728 345.92578316 C35.36750397 343.93722591 36.4689363 341.96569736 37.58691978 340.00390816 C43.13946663 330.1422053 47.16343293 319.97120991 50.73926353 309.24609566 C51.14145103 308.04082222 51.54363853 306.83554878 51.95801353 305.59375191 C56.14748517 291.99383831 58.2113523 277.45170693 58.73926353 263.24609566 C58.76649498 262.53968941 58.79372643 261.83328316 58.82178307 261.10547066 C60.1595922 220.98802442 48.25746026 180.25853365 23.73926353 148.24609566 C22.77633385 146.96992378 22.77633385 146.96992378 21.79395103 145.66797066 C14.57575531 136.37490895 6.37260277 126.10290854 -3.26073647 119.24609566 C-3.92073647 119.24609566 -4.58073647 119.24609566 -5.26073647 119.24609566 C-5.26073647 118.58609566 -5.26073647 117.92609566 -5.26073647 117.24609566 C-7.70943644 114.98974069 -10.54627805 113.1679815 -13.26073647 111.24609566 C-14.20561928 110.56031441 -15.15050209 109.87453316 -16.12401772 109.16797066 C-83.61873816 61.08953966 -179.01397844 65.34391051 -240.15917397 122.29687691 Z " fill="#F9F9F9" transform="translate(373.2607364654541,-0.2460956573486328)"/>
<path d="M0 0 C2.23046875 1.98828125 2.23046875 1.98828125 3.8125 3.6875 C3.8125 4.3475 3.8125 5.0075 3.8125 5.6875 C4.8025 6.0175 5.7925 6.3475 6.8125 6.6875 C8.51720384 8.63279888 10.08094061 10.55880053 11.625 12.625 C12.29366089 13.51288208 12.29366089 13.51288208 12.97583008 14.41870117 C18.46036143 21.79348865 22.82135961 29.39129905 26.625 37.75 C26.92752686 38.39880127 27.23005371 39.04760254 27.54174805 39.71606445 C29.1170554 43.30729619 30.02200373 46.52404262 30.40112305 50.43920898 C30.48114059 51.238181 30.56115814 52.03715302 30.64360046 52.8603363 C30.72720573 53.76478233 30.72720573 53.76478233 30.8125 54.6875 C22.86732599 54.9432059 14.92388943 55.138218 6.97560883 55.25743389 C3.28401161 55.314677 -0.40475753 55.39218949 -4.09472656 55.51733398 C-7.66116195 55.63752157 -11.22489263 55.70275151 -14.79319763 55.73114967 C-16.80579053 55.76115286 -18.81730422 55.84693299 -20.82824707 55.9337616 C-29.85580594 55.93980703 -29.85580594 55.93980703 -33.76196289 52.26651001 C-35.78309921 49.48813356 -37.49469117 46.67314772 -39.1875 43.6875 C-41.68708655 40.85290517 -41.68708655 40.85290517 -44.1875 38.6875 C-45.5796875 37.4190625 -45.5796875 37.4190625 -47 36.125 C-55.94224659 28.86653521 -67.11404448 26.11989397 -78.4375 26.25 C-79.34701416 26.25539795 -80.25652832 26.2607959 -81.19360352 26.26635742 C-90.23784411 26.46851246 -98.30060893 28.22938792 -106.44140625 32.32421875 C-109.1875 33.6875 -109.1875 33.6875 -111.1875 33.6875 C-111.1875 34.3475 -111.1875 35.0075 -111.1875 35.6875 C-112.69140625 37.09765625 -112.69140625 37.09765625 -114.75 38.75 C-126.72393572 48.96493277 -133.31794076 63.11389 -135.1875 78.6875 C-136.34543842 102.90143128 -133.90100702 123.88106724 -117.1875 142.6875 C-102.50636793 154.03810145 -87.58701034 157.36223094 -69.1875 155.6875 C-56.19521652 153.498773 -45.46192615 146.74844998 -37.1875 136.6875 C-35.33838152 134.07647622 -33.76162446 131.48030147 -32.1875 128.6875 C-31.1875 127.6875 -31.1875 127.6875 -28.71348572 127.56724548 C-27.61428299 127.56946609 -26.51508026 127.57168671 -25.38256836 127.57397461 C-24.14135727 127.57405014 -22.90014618 127.57412567 -21.62132263 127.57420349 C-20.2566626 127.57931089 -18.89200298 127.5845269 -17.52734375 127.58984375 C-16.13871817 127.591708 -14.75009193 127.59313187 -13.36146545 127.59413147 C-9.70028885 127.59795613 -6.0391517 127.60778597 -2.37799072 127.61883545 C1.35542263 127.62905068 5.08884234 127.63362933 8.82226562 127.63867188 C16.15236177 127.64940829 23.48242536 127.66648409 30.8125 127.6875 C30.32653398 132.37595346 29.8168747 136.39522832 27.921875 140.74609375 C27.54160156 141.62716797 27.16132813 142.50824219 26.76953125 143.41601562 C26.37121094 144.30998047 25.97289062 145.20394531 25.5625 146.125 C25.17964844 147.01509766 24.79679688 147.90519531 24.40234375 148.82226562 C20.85772003 156.93696441 17.44285195 164.65990732 10.8125 170.6875 C9.26537616 172.2236901 7.72418555 173.76586826 6.1875 175.3125 C4.72916667 176.77083333 3.27083333 178.22916667 1.8125 179.6875 C1.28011719 180.22761719 0.74773437 180.76773438 0.19921875 181.32421875 C-5.25626791 186.6875 -5.25626791 186.6875 -8.1875 186.6875 C-8.1875 187.3475 -8.1875 188.0075 -8.1875 188.6875 C-26.43019355 205.4366397 -58.55844373 210.8110516 -82.3828125 210.0390625 C-107.83053214 208.54086977 -134.07347476 200.91586127 -154.1875 184.6875 C-154.1875 184.0275 -154.1875 183.3675 -154.1875 182.6875 C-154.744375 182.460625 -155.30125 182.23375 -155.875 182 C-158.85954749 180.30606764 -160.81404045 178.17135302 -163.1875 175.6875 C-163.72503906 175.1821875 -164.26257813 174.676875 -164.81640625 174.15625 C-177.73081213 161.90634375 -184.98525878 145.42514567 -190.1875 128.6875 C-190.4453125 127.90375 -190.703125 127.12 -190.96875 126.3125 C-199.72455806 97.59344955 -197.07657049 60.37536473 -183.18310547 33.76367188 C-180.94842874 29.67957309 -178.59482138 25.67182595 -176.1875 21.6875 C-175.5275 21.6875 -174.8675 21.6875 -174.1875 21.6875 C-174.043125 21.06875 -173.89875 20.45 -173.75 19.8125 C-173.1875 17.6875 -173.1875 17.6875 -172.1875 15.6875 C-171.5275 15.6875 -170.8675 15.6875 -170.1875 15.6875 C-169.92453125 15.11128906 -169.6615625 14.53507812 -169.390625 13.94140625 C-163.29189959 2.51619664 -149.42620108 -7.27690127 -138.1875 -13.3125 C-136.8675 -13.3125 -135.5475 -13.3125 -134.1875 -13.3125 C-134.1875 -13.9725 -134.1875 -14.6325 -134.1875 -15.3125 C-89.96097591 -33.89507315 -37.72932564 -32.5151797 0 0 Z " fill="#F5F5F5" transform="translate(330.1875,154.3125)"/>
<path d="M0 0 C3.61268782 2.44585697 4.95964857 4.74728703 6.81640625 8.69921875 C26.53026506 47.02087828 69.30827218 73.91478984 106.84423828 91.96142578 C108.28604994 92.65604263 109.72453756 93.35760016 111.15966797 94.06591797 C126.86104547 101.77966602 143.31809777 106.88556976 160 112 C159.67 112.66 159.34 113.32 159 114 C126.92909027 120.77921669 90.79752106 108.65995616 63.734375 91.98828125 C34.701508 73.04247445 11.69678485 46.70827761 2 13 C1.0988226 8.68041411 0.43600146 4.39008371 0 0 Z " fill="#EDEDED" transform="translate(100,303)"/>
<path d="M0 0 C3.01487962 2.02040993 4.59313306 3.62347327 6.0625 6.9375 C7.44792456 9.91096061 8.88594654 12.46313585 11 15 C10.67 15.66 10.34 16.32 10 17 C9.34 16.67 8.68 16.34 8 16 C5.88316159 16.89163577 5.88316159 16.89163577 4 18 C2.24619442 14.08709763 1.47435082 10.4257665 0.875 6.1875 C0.70742187 5.02605469 0.53984375 3.86460937 0.3671875 2.66796875 C0.24601562 1.78753906 0.12484375 0.90710938 0 0 Z " fill="#AAAAAA" transform="translate(100,303)"/>
<path d="M0 0 C0.66 0.33 1.32 0.66 2 1 C-2.83108917 7.9106971 -8.22738957 12.99889733 -15 18 C-15 12.50089132 -9.68936771 8.76735434 -6 5 C-4.05347234 3.22256464 -2.09090037 1.6083849 0 0 Z " fill="#666666" transform="translate(176,152)"/>
<path d="M0 0 C0 3 0 3 -1.96875 5.19140625 C-3.22171875 6.36509766 -3.22171875 6.36509766 -4.5 7.5625 C-6.03509839 9.00520821 -7.5439736 10.47752795 -9 12 C-9 12.66 -9 13.32 -9 14 C-10.53125 15.5078125 -10.53125 15.5078125 -12.5 17.125 C-13.1496875 17.66382812 -13.799375 18.20265625 -14.46875 18.7578125 C-14.9740625 19.16773437 -15.479375 19.57765625 -16 20 C-16.66 19.67 -17.32 19.34 -18 19 C-12.36531717 12.2883812 -6.24063576 6.13907026 0 0 Z " fill="#A2A2A2" transform="translate(106,94)"/>
<path d="M0 0 C0 0.66 0 1.32 0 2 C-0.99 2 -1.98 2 -3 2 C-3.433125 2.928125 -3.433125 2.928125 -3.875 3.875 C-5 6 -5 6 -7 8 C-7 7.34 -7 6.68 -7 6 C-9.31 6.33 -11.62 6.66 -14 7 C-11.79459886 4.79459886 -9.78605258 3.7599273 -7 2.375 C-6.113125 1.92898438 -5.22625 1.48296875 -4.3125 1.0234375 C-2 0 -2 0 0 0 Z " fill="#707070" transform="translate(283,302)"/>
<path d="M0 0 C0.99 0.33 1.98 0.66 3 1 C0.19195732 3.96404505 -2.18315774 6.44499019 -6 8 C-4.26440562 4.942048 -2.61527381 2.36620011 0 0 Z " fill="#ADADAD" transform="translate(94,106)"/>
<path d="M0 0 C4.97306516 0.49730652 8.63799813 1.55302334 13 4 C9.57186835 5.14271055 8.69088901 4.82699932 5.375 3.6875 C4.57835937 3.42324219 3.78171875 3.15898437 2.9609375 2.88671875 C1 2 1 2 0 0 Z " fill="#5C5C5C" transform="translate(203,353)"/>
<path d="M0 0 C0.99 0.33 1.98 0.66 3 1 C-0.3 3.64 -3.6 6.28 -7 9 C-7 6 -7 6 -5.57421875 4.359375 C-4.95160156 3.82828125 -4.32898438 3.2971875 -3.6875 2.75 C-3.07261719 2.20859375 -2.45773438 1.6671875 -1.82421875 1.109375 C-1.22222656 0.74328125 -0.62023437 0.3771875 0 0 Z " fill="#A7A7A7" transform="translate(168,161)"/>
<path d="M0 0 C2.5 1.375 2.5 1.375 5 3 C5 3.66 5 4.32 5 5 C5.99 5.33 6.98 5.66 8 6 C7.67 6.66 7.34 7.32 7 8 C4.525 7.01 4.525 7.01 2 6 C2 5.01 2 4.02 2 3 C1.34 2.67 0.68 2.34 0 2 C0 1.34 0 0.68 0 0 Z " fill="#7D7D7D" transform="translate(329,155)"/>
<path d="M0 0 C0.66 0 1.32 0 2 0 C3.7143618 1.95927063 5.38405168 3.95880212 7 6 C6.01 7.485 6.01 7.485 5 9 C3.35 6.03 1.7 3.06 0 0 Z " fill="#7F7F7F" transform="translate(293,199)"/>
<path d="M0 0 C0.66 1.32 1.32 2.64 2 4 C-0.31 5.65 -2.62 7.3 -5 9 C-3.50163895 5.88801935 -1.80066242 2.9465385 0 0 Z " fill="#949494" transform="translate(341,40)"/>
<path d="" fill="#000000" transform="translate(0,0)"/>
<path d="" fill="#000000" transform="translate(0,0)"/>
<path d="" fill="#000000" transform="translate(0,0)"/>
<path d="" fill="#000000" transform="translate(0,0)"/>
<path d="" fill="#000000" transform="translate(0,0)"/>
<path d="" fill="#000000" transform="translate(0,0)"/>
<path d="" fill="#000000" transform="translate(0,0)"/>
<path d="" fill="#000000" transform="translate(0,0)"/>
<path d="" fill="#000000" transform="translate(0,0)"/>
<path d="" fill="#000000" transform="translate(0,0)"/>
<path d="" fill="#000000" transform="translate(0,0)"/>
<path d="" fill="#000000" transform="translate(0,0)"/>
<path d="" fill="#000000" transform="translate(0,0)"/>
<path d="" fill="#000000" transform="translate(0,0)"/>
<path d="" fill="#000000" transform="translate(0,0)"/>
<path d="" fill="#000000" transform="translate(0,0)"/>
<path d="" fill="#000000" transform="translate(0,0)"/>
<path d="" fill="#000000" transform="translate(0,0)"/>
<path d="" fill="#000000" transform="translate(0,0)"/>
<path d="" fill="#000000" transform="translate(0,0)"/>
<path d="" fill="#000000" transform="translate(0,0)"/>
<path d="" fill="#000000" transform="translate(0,0)"/>
<path d="" fill="#000000" transform="translate(0,0)"/>
<path d="" fill="#000000" transform="translate(0,0)"/>
<path d="" fill="#000000" transform="translate(0,0)"/>
<path d="" fill="#000000" transform="translate(0,0)"/>
<path d="" fill="#000000" transform="translate(0,0)"/>
<path d="" fill="#000000" transform="translate(0,0)"/>
<path d="" fill="#000000" transform="translate(0,0)"/>
<path d="" fill="#000000" transform="translate(0,0)"/>
<path d="" fill="#000000" transform="translate(0,0)"/>
<path d="" fill="#000000" transform="translate(0,0)"/>
<path d="" fill="#000000" transform="translate(0,0)"/>
<path d="" fill="#000000" transform="translate(0,0)"/>
<path d="" fill="#000000" transform="translate(0,0)"/>
<path d="" fill="#000000" transform="translate(0,0)"/>
<path d="" fill="#000000" transform="translate(0,0)"/>
<path d="" fill="#000000" transform="translate(0,0)"/>
<path d="" fill="#000000" transform="translate(0,0)"/>
<path d="" fill="#000000" transform="translate(0,0)"/>
<path d="" fill="#000000" transform="translate(0,0)"/>
<path d="" fill="#000000" transform="translate(0,0)"/>
<path d="" fill="#000000" transform="translate(0,0)"/>
<path d="" fill="#000000" transform="translate(0,0)"/>
<path d="" fill="#000000" transform="translate(0,0)"/>
</svg>
