<?xml version="1.0" encoding="UTF-8"?>
<svg version="1.1" xmlns="http://www.w3.org/2000/svg" width="500" height="500">
<path d="M0 0 C1.25879471 -0.00073013 2.51758942 -0.00146027 3.81452942 -0.00221252 C7.26288708 -0.00364685 10.71037474 0.02574373 14.15853024 0.06065726 C17.76329573 0.09191904 21.36808129 0.09485133 24.97296143 0.1007843 C31.79767744 0.11632341 38.62199286 0.15735231 45.44653249 0.20753175 C53.21667468 0.26342351 60.98683602 0.29091121 68.75712919 0.31600893 C84.73968529 0.36826849 100.72184177 0.45621152 116.70410156 0.56762695 C114.47730621 4.49741194 112.31371601 8.29501337 109.60253906 11.9152832 C109.035271 12.67784424 108.46800293 13.44040527 107.88354492 14.22607422 C106.99034546 15.41608032 106.99034546 15.41608032 106.07910156 16.63012695 C104.81659195 18.32745565 103.55487738 20.02537598 102.29394531 21.72387695 C101.37137939 22.96524414 101.37137939 22.96524414 100.43017578 24.23168945 C98.1330171 27.34048921 95.87918704 30.47828933 93.64160156 33.63012695 C89.91392349 38.87560677 86.16148532 44.10237936 82.39160156 49.31762695 C81.84584473 50.07277588 81.30008789 50.8279248 80.73779297 51.60595703 C78.49818923 54.70419584 76.25786508 57.80191341 74.01757812 60.8996582 C68.16655319 68.99113952 62.32323522 77.08742326 56.52734375 85.21850586 C52.95757956 90.22226549 49.36450511 95.20907132 45.76660156 100.19262695 C45.21037109 100.96348633 44.65414063 101.7343457 44.08105469 102.52856445 C43.55576172 103.2555957 43.03046875 103.98262695 42.48925781 104.73168945 C42.02398682 105.3757373 41.55871582 106.01978516 41.0793457 106.68334961 C39.70410156 108.56762695 39.70410156 108.56762695 37.9675293 110.55737305 C36.49288523 112.4613389 36.49288523 112.4613389 36.85913086 114.60473633 C37.76343193 116.70545305 38.77323766 118.20725679 40.22363281 119.97387695 C40.74538086 120.62461182 41.26712891 121.27534668 41.8046875 121.94580078 C42.36961914 122.64600342 42.93455078 123.34620605 43.51660156 124.06762695 C77.3329365 167.28415361 92.58849212 225.40533772 86.49707031 279.7980957 C84.4428903 295.7131913 81.12125706 311.4521403 75.70410156 326.56762695 C75.47561523 327.23149414 75.24712891 327.89536133 75.01171875 328.5793457 C67.78357969 349.43238017 57.23408772 369.1410833 43.70410156 386.56762695 C42.92421875 387.57696289 42.14433594 388.58629883 41.34082031 389.6262207 C35.79550608 396.57017547 29.79078659 403.09936076 23.70410156 409.56762695 C23.08792969 410.22633789 22.47175781 410.88504883 21.83691406 411.5637207 C-15.46656007 450.20583625 -72.08957799 471.85189066 -125.16323853 472.89277649 C-140.36972026 473.10086947 -155.31416307 472.32126991 -170.29589844 469.56762695 C-171.03195313 469.43372559 -171.76800781 469.29982422 -172.52636719 469.16186523 C-216.00121604 460.8747233 -261.88522218 436.85668107 -290.56933594 402.59887695 C-291.7851048 401.16856065 -293.04515741 399.77530712 -294.33496094 398.41137695 C-322.24605642 368.82364323 -338.56213911 328.10595713 -345.29589844 288.56762695 C-345.42722168 287.81449219 -345.55854492 287.06135742 -345.69384766 286.28540039 C-354.45888998 233.40010997 -340.18657105 175.2523267 -309.5222168 131.56762695 C-294.77234602 111.06714625 -277.91226943 93.25373894 -257.29589844 78.56762695 C-256.68987793 78.12757324 -256.08385742 77.68751953 -255.45947266 77.23413086 C-209.74671942 44.22006871 -151.45288353 31.98457475 -96.04492188 40.0402832 C-81.98577778 42.36126694 -68.62224813 46.01967016 -55.28100586 51.00439453 C-52.99845782 51.74959686 -52.99845782 51.74959686 -49.29589844 51.56762695 C-47.70233365 50.02159376 -47.70233365 50.02159376 -46.41308594 47.8684082 C-45.89077393 47.07781006 -45.36846191 46.28721191 -44.83032227 45.47265625 C-44.2827124 44.61712158 -43.73510254 43.76158691 -43.17089844 42.88012695 C-42.00852534 41.12033487 -40.84314351 39.36252652 -39.67480469 37.60668945 C-39.10133301 36.74205078 -38.52786133 35.87741211 -37.93701172 34.98657227 C-35.05493855 30.73849418 -31.88282777 26.74179792 -28.71386719 22.7043457 C-25.59297612 18.65575842 -22.63359393 14.50328641 -19.69360352 10.32226562 C-18.57104626 8.7302796 -17.43378603 7.14869182 -16.29589844 5.56762695 C-15.84357849 4.69052567 -15.39125854 3.81342438 -14.92523193 2.90974426 C-10.56703313 -0.97238513 -5.62871504 -0.08489551 0 0 Z M-166.29589844 79.56762695 C-167.07239746 79.74455078 -167.84889648 79.92147461 -168.64892578 80.10375977 C-205.84417458 88.72335114 -242.09804489 108.45474254 -266.29589844 138.56762695 C-267.04097656 139.47512695 -267.78605469 140.38262695 -268.55371094 141.31762695 C-298.0526642 178.30691005 -313.21677101 224.77652128 -308.57763672 272.13647461 C-306.93237896 286.33359485 -304.17640561 300.13047261 -299.29589844 313.56762695 C-299.04469238 314.27693359 -298.79348633 314.98624023 -298.53466797 315.71704102 C-281.44395489 363.58778297 -246.634627 397.77064758 -201.29589844 419.56762695 C-161.50461867 438.29398118 -112.19011652 439.29249475 -71.06738281 424.62084961 C-54.77536645 418.51292338 -39.33294935 410.86858067 -25.29589844 400.56762695 C-24.47476562 399.97594727 -23.65363281 399.38426758 -22.80761719 398.7746582 C-16.22706544 393.85385485 -10.25784341 388.20708943 -4.29589844 382.56762695 C-2.99072266 381.34366211 -2.99072266 381.34366211 -1.65917969 380.0949707 C8.8664814 369.93283324 17.23487249 358.09527713 24.70410156 345.56762695 C25.07390137 344.95000488 25.44370117 344.33238281 25.82470703 343.69604492 C49.72465633 303.06094675 54.38550612 254.15252743 43.01660156 208.88012695 C30.82102266 163.13421452 0.24697555 123.58107236 -40.59057617 99.76928711 C-43.78945927 97.96335988 -47.02732267 96.24363946 -50.29589844 94.56762695 C-51.90658203 93.74004883 -51.90658203 93.74004883 -53.54980469 92.89575195 C-77.28171318 81.37137086 -102.96061047 76.33793807 -129.17089844 76.31762695 C-129.95279541 76.31695221 -130.73469238 76.31627747 -131.5402832 76.31558228 C-143.37603222 76.33180352 -154.73535473 76.82786024 -166.29589844 79.56762695 Z " fill="#070707" transform="translate(383.2958984375,-0.567626953125)"/>
<path d="M0 0 C1.27230469 1.02673828 1.27230469 1.02673828 2.5703125 2.07421875 C16.74843686 14.09673486 25.90356255 29.53539441 32.5625 46.6875 C32.82651611 47.35894043 33.09053223 48.03038086 33.36254883 48.72216797 C34.67249276 52.28532451 35.1247092 54.39473409 34 58 C25.79412804 58.27889762 17.59025538 58.49166105 9.38080597 58.62174606 C5.56791561 58.68420728 1.75828126 58.76878514 -2.05273438 58.90527344 C-5.73592127 59.0363475 -9.41599371 59.10753649 -13.10133362 59.13852692 C-14.50192839 59.16058547 -15.90236498 59.20367367 -17.30162048 59.26876068 C-21.77962769 59.46863903 -25.72851211 59.4176653 -30 58 C-33.54673258 54.39794956 -35.66176207 50.44016361 -38 46 C-46.5696661 35.32762703 -59.66289766 29.7986423 -73 28 C-89.85244582 26.78487093 -105.25525586 30.09095666 -118.4921875 41.06640625 C-131.870415 53.65635436 -138.72436198 70.80488294 -139.30078125 89.015625 C-139.32005744 91.09366427 -139.32359563 93.17190095 -139.3125 95.25 C-139.30758545 96.34465576 -139.3026709 97.43931152 -139.29760742 98.56713867 C-139.03713838 116.64368989 -134.58813072 131.86635939 -123 146 C-122.42507812 146.55558594 -121.85015625 147.11117187 -121.2578125 147.68359375 C-120 149 -120 149 -120 151 C-119.43410156 151.27070313 -118.86820312 151.54140625 -118.28515625 151.8203125 C-115.90559407 153.04873605 -113.69679964 154.43827898 -111.4375 155.875 C-96.98177907 164.59533902 -80.00633927 166.3318796 -63.6875 162.4375 C-50.30316243 158.91786099 -40.39117828 150.68764262 -33.1875 139.0625 C-32.64480469 138.12535156 -32.10210937 137.18820312 -31.54296875 136.22265625 C-30 134 -30 134 -27 133 C-24.39181124 132.90256977 -21.81125583 132.86022174 -19.203125 132.8671875 C-18.42508514 132.86586823 -17.64704529 132.86454895 -16.84542847 132.8631897 C-14.31357855 132.86127237 -11.78183867 132.8676069 -9.25 132.875 C-8.39484802 132.87588623 -7.53969604 132.87677246 -6.65863037 132.87768555 C6.91768712 132.89427978 20.44475427 133.19757531 34 134 C36.68766683 142.97736136 28.4283044 156.14152006 24.2265625 164.109375 C9.96974088 189.83005229 -15.42934844 206.50525871 -43 215 C-74.07264544 223.70566619 -109.20668389 220.27178908 -138 206 C-138.60585937 205.70109863 -139.21171875 205.40219727 -139.8359375 205.09423828 C-151.1374782 199.39103174 -161.47734154 191.39571128 -170 182 C-170 181.34 -170 180.68 -170 180 C-170.66 180 -171.32 180 -172 180 C-195.57054043 151.56639267 -202.1228037 117.06883534 -200 81 C-198.14949433 62.80997931 -192.507942 47.03499767 -184 31 C-183.45472656 29.94554687 -182.90945312 28.89109375 -182.34765625 27.8046875 C-168.73583434 2.84413387 -143.77334857 -14.21366094 -116.9375 -22.375 C-76.84859588 -33.8833973 -32.35760375 -26.77708948 0 0 Z " fill="#040404" transform="translate(331,149)"/>
<path d="M0 0 C3 1 3 1 4.18359375 2.94140625 C4.59738281 3.80636719 5.01117188 4.67132813 5.4375 5.5625 C15.66576146 24.98865752 31.90699533 41.4805958 49 55 C49.68094727 55.53947266 50.36189453 56.07894531 51.06347656 56.63476562 C83.4297089 81.9724843 120.17665592 98.37240467 159 111 C159 111.66 159 112.32 159 113 C124.68563194 120.34468494 87.52092303 106.51163138 58.9375 88.25 C51.83322138 83.37357726 45.37438999 77.78133333 39 72 C38.10152344 71.18660156 37.20304687 70.37320313 36.27734375 69.53515625 C16.65602166 50.84670209 4.77621017 26.43674226 0 0 Z " fill="#171717" transform="translate(100,304)"/>
<path d="M0 0 C0.77803986 -0.00131927 1.55607971 -0.00263855 2.35769653 -0.0039978 C4.88954645 -0.00591513 7.42128633 0.0004194 9.953125 0.0078125 C10.80827698 0.00869873 11.66342896 0.00958496 12.54449463 0.01049805 C26.12081212 0.02709228 39.64787927 0.33038781 53.203125 1.1328125 C53.203125 1.4628125 53.203125 1.7928125 53.203125 2.1328125 C52.46254349 2.14311996 51.72196198 2.15342743 50.9589386 2.16404724 C43.97025192 2.26213701 36.98164768 2.36466747 29.99310017 2.47215176 C26.40045957 2.52725105 22.80781066 2.58064971 19.21508789 2.63012695 C15.74613315 2.67796289 12.27727286 2.7303116 8.80843163 2.78575325 C6.84485215 2.81596853 4.88120305 2.84154348 2.91755676 2.86705017 C1.11625557 2.896968 1.11625557 2.896968 -0.72143555 2.92749023 C-2.30362129 2.95080666 -2.30362129 2.95080666 -3.91777039 2.97459412 C-6.64028655 3.12420733 -9.14328158 3.52310952 -11.796875 4.1328125 C-11.466875 3.1428125 -11.136875 2.1528125 -10.796875 1.1328125 C-7.14859605 -0.08328048 -3.79779557 -0.01014311 0 0 Z " fill="#B1B1B1" transform="translate(311.796875,281.8671875)"/>
<path d="M0 0 C20.13 0 40.26 0 61 0 C60.67 1.98 60.34 3.96 60 6 C59.34 4.68 58.68 3.36 58 2 C38.86 1.67 19.72 1.34 0 1 C0 0.67 0 0.34 0 0 Z " fill="#1C1C1C" transform="translate(305,284)"/>
<path d="M0 0 C0.66 1.32 1.32 2.64 2 4 C1.29875 4.33 0.5975 4.66 -0.125 5 C-3.48799764 7.33947662 -5.35244656 9.92199425 -7.66796875 13.2578125 C-9 15 -9 15 -11 16 C-11 16.66 -11 17.32 -11 18 C-12.32 18.33 -13.64 18.66 -15 19 C-15 18.34 -15 17.68 -15 17 C-16.32 17.33 -17.64 17.66 -19 18 C-16.75906186 15.63850506 -14.36928287 13.74032882 -11.75 11.8125 C-7.21437128 8.33840141 -3.58111994 4.43321922 0 0 Z " fill="#5F5E5E" transform="translate(296,291)"/>
<path d="M0 0 C-0.66 0 -1.32 0 -2 0 C-2 0.66 -2 1.32 -2 2 C-3.32 2.33 -4.64 2.66 -6 3 C-6 2.34 -6 1.68 -6 1 C-7.32 1.33 -8.64 1.66 -10 2 C-6.64272747 -1.86086341 -4.42408585 -2.94939057 0 0 Z " fill="#363636" transform="translate(287,307)"/>
<path d="M0 0 C0.99 0.66 1.98 1.32 3 2 C0.03839944 5.12613393 -2.09567131 7.04783565 -6 9 C-4.02 6.03 -2.04 3.06 0 0 Z " fill="#3F3F3F" transform="translate(80,123)"/>
<path d="M0 0 C0.66 1.32 1.32 2.64 2 4 C0.02 5.32 -1.96 6.64 -4 8 C-4.66 7.67 -5.32 7.34 -6 7 C-4.02 4.69 -2.04 2.38 0 0 Z " fill="#6D6D6D" transform="translate(296,291)"/>
<path d="M0 0 C0.66 0.33 1.32 0.66 2 1 C-4.28571429 6.57142857 -4.28571429 6.57142857 -8 7 C-5.42215154 4.35247996 -3.08351902 2.05567935 0 0 Z " fill="#59595B" transform="translate(184,140)"/>
<path d="M0 0 C0.66 0.33 1.32 0.66 2 1 C0.02 2.98 -1.96 4.96 -4 7 C-4.99 6.67 -5.98 6.34 -7 6 C-4.69 4.02 -2.38 2.04 0 0 Z " fill="#575757" transform="translate(114,87)"/>
<path d="" fill="#FFFFFF" transform="translate(0,0)"/>
<path d="" fill="#FFFFFF" transform="translate(0,0)"/>
<path d="" fill="#FFFFFF" transform="translate(0,0)"/>
<path d="" fill="#FFFFFF" transform="translate(0,0)"/>
<path d="" fill="#FFFFFF" transform="translate(0,0)"/>
<path d="" fill="#FFFFFF" transform="translate(0,0)"/>
<path d="" fill="#FFFFFF" transform="translate(0,0)"/>
<path d="" fill="#FFFFFF" transform="translate(0,0)"/>
<path d="" fill="#FFFFFF" transform="translate(0,0)"/>
<path d="" fill="#FFFFFF" transform="translate(0,0)"/>
<path d="" fill="#FFFFFF" transform="translate(0,0)"/>
<path d="" fill="#FFFFFF" transform="translate(0,0)"/>
<path d="" fill="#FFFFFF" transform="translate(0,0)"/>
<path d="" fill="#FFFFFF" transform="translate(0,0)"/>
<path d="" fill="#FFFFFF" transform="translate(0,0)"/>
<path d="" fill="#FFFFFF" transform="translate(0,0)"/>
<path d="" fill="#FFFFFF" transform="translate(0,0)"/>
<path d="" fill="#FFFFFF" transform="translate(0,0)"/>
<path d="" fill="#FFFFFF" transform="translate(0,0)"/>
<path d="" fill="#FFFFFF" transform="translate(0,0)"/>
<path d="" fill="#FFFFFF" transform="translate(0,0)"/>
<path d="" fill="#FFFFFF" transform="translate(0,0)"/>
<path d="" fill="#FFFFFF" transform="translate(0,0)"/>
<path d="" fill="#FFFFFF" transform="translate(0,0)"/>
<path d="" fill="#FFFFFF" transform="translate(0,0)"/>
<path d="" fill="#FFFFFF" transform="translate(0,0)"/>
<path d="" fill="#FFFFFF" transform="translate(0,0)"/>
<path d="" fill="#FFFFFF" transform="translate(0,0)"/>
<path d="" fill="#FFFFFF" transform="translate(0,0)"/>
<path d="" fill="#FFFFFF" transform="translate(0,0)"/>
<path d="" fill="#FFFFFF" transform="translate(0,0)"/>
<path d="" fill="#FFFFFF" transform="translate(0,0)"/>
<path d="" fill="#FFFFFF" transform="translate(0,0)"/>
<path d="" fill="#FFFFFF" transform="translate(0,0)"/>
<path d="" fill="#FFFFFF" transform="translate(0,0)"/>
<path d="" fill="#FFFFFF" transform="translate(0,0)"/>
<path d="" fill="#FFFFFF" transform="translate(0,0)"/>
<path d="" fill="#FFFFFF" transform="translate(0,0)"/>
<path d="" fill="#FFFFFF" transform="translate(0,0)"/>
<path d="" fill="#FFFFFF" transform="translate(0,0)"/>
<path d="" fill="#FFFFFF" transform="translate(0,0)"/>
<path d="" fill="#FFFFFF" transform="translate(0,0)"/>
<path d="" fill="#FFFFFF" transform="translate(0,0)"/>
<path d="" fill="#FFFFFF" transform="translate(0,0)"/>
<path d="" fill="#FFFFFF" transform="translate(0,0)"/>
<path d="" fill="#FFFFFF" transform="translate(0,0)"/>
<path d="" fill="#FFFFFF" transform="translate(0,0)"/>
</svg>
